# xmcd
#
# Track frame offsets: 
#        150
#        37547
#        58815
#        74602
#        91365
#        130922
#        142945
#        162652
#
# Disc length: 2444 seconds
#
# Revision: 4
# Processed by: cddbd v1.5.2PL0 Copyright (c) Steve Scherf et al.
# Submitted via: ExactAudioCopyFreeDBPlugin 1.0
#
DISCID=6d098a08
DTITLE=Booker T. and the M.G.'s - Melting Pot
DYEAR=1983
DGENRE=Soul
TTITLE0=Melting Pot
TTITLE1=Back Home
TTITLE2=Chicken Pox
TTITLE3=Fuquawi
TTITLE4=Kinda Easy Like
TTITLE5=Hi Ride
TTITLE6=L.A. Jazz Song
TTITLE7=Sunny Monday
EXTD=YEAR: 1971
EXTT0=
EXTT1=
EXTT2=
EXTT3=
EXTT4=
EXTT5=
EXTT6=
EXTT7=
PLAYORDER=
